<svg width="56" height="56" viewBox="0 0 56 56" fill="none" xmlns="http://www.w3.org/2000/svg">
<path d="M42.5551 14.5431C42.3523 13.923 41.7738 13.5037 41.1214 13.5037H13.3684C12.3806 13.5037 11.6594 14.4372 11.9088 15.393L17.9227 38.4387C18.0976 39.1088 18.7062 39.5737 19.3986 39.5662L48.5741 39.2511C49.5933 39.2401 50.3084 38.2425 49.9915 37.2738L42.5551 14.5431Z" fill="#CCE1FF"/>
<path d="M42.499 14.8549C42.337 14.0901 41.6176 13.5759 40.8416 13.6701L14.4194 16.8779C13.7959 16.9536 13.2846 17.4077 13.1357 18.0178L7.39593 41.5468C7.16295 42.5018 7.8911 43.4209 8.87411 43.4127L46.6344 43.0945C47.5881 43.0865 48.2951 42.2064 48.0974 41.2734L42.499 14.8549Z" fill="#2D81F7"/>
<path d="M10.9414 14.6312C11.1147 13.9671 11.7146 13.5037 12.401 13.5037H40.159C41.1226 13.5037 41.8391 14.3948 41.6323 15.3359L36.5652 38.3942C36.4132 39.0861 35.8002 39.5789 35.0919 39.5789H6.38376C5.39599 39.5789 4.67477 38.6454 4.92419 37.6896L10.9414 14.6312Z" fill="#F2F5FF"/>
<path d="M40.7151 19.5185L41.6341 15.3358C41.8408 14.3947 41.1243 13.5037 40.1608 13.5037H12.4025C11.7162 13.5037 11.1164 13.967 10.943 14.6311L9.71704 19.3277L40.7151 19.5185Z" fill="#CCE1FF"/>
<path d="M39.9612 43.1461C38.6749 43.1656 37.956 41.6693 38.7752 40.6773L41.5005 37.3771C42.0724 36.6845 43.1192 36.6421 43.7452 37.2862L46.8668 40.4976C47.7886 41.4461 47.1305 43.0372 45.808 43.0573L39.9612 43.1461Z" fill="#0F65DE"/>
<path d="M16.9655 16.654C17.5589 16.654 18.0399 16.1839 18.0399 15.604C18.0399 15.0241 17.5589 14.554 16.9655 14.554C16.3721 14.554 15.8911 15.0241 15.8911 15.604C15.8911 16.1839 16.3721 16.654 16.9655 16.654Z" fill="white"/>
<path d="M17.0538 15.6041C15.8182 15.6041 14.8154 14.624 14.8154 13.4165C14.8154 12.209 15.8182 11.229 17.0538 11.229C18.2893 11.229 19.2921 12.209 19.2921 13.4165" stroke="white" stroke-width="3.0169" stroke-miterlimit="10"/>
<path d="M25.9194 16.654C26.5127 16.654 26.9938 16.1839 26.9938 15.604C26.9938 15.0241 26.5127 14.554 25.9194 14.554C25.326 14.554 24.845 15.0241 24.845 15.604C24.845 16.1839 25.326 16.654 25.9194 16.654Z" fill="white"/>
<path d="M26.0076 15.6041C24.7721 15.6041 23.7693 14.624 23.7693 13.4165C23.7693 12.209 24.7721 11.229 26.0076 11.229C27.2432 11.229 28.2459 12.209 28.2459 13.4165" stroke="white" stroke-width="3.0169" stroke-miterlimit="10"/>
<path d="M35.5915 16.654C36.1849 16.654 36.6659 16.1839 36.6659 15.604C36.6659 15.0241 36.1849 14.554 35.5915 14.554C34.9981 14.554 34.5171 15.0241 34.5171 15.604C34.5171 16.1839 34.9981 16.654 35.5915 16.654Z" fill="white"/>
<path d="M35.6788 15.6041C34.4432 15.6041 33.4404 14.624 33.4404 13.4165C33.4404 12.209 34.4432 11.229 35.6788 11.229C36.9143 11.229 37.9171 12.209 37.9171 13.4165" stroke="white" stroke-width="3.0169" stroke-miterlimit="10"/>
</svg>
