<?xml version="1.0" encoding="UTF-8"?>
<svg xmlns="http://www.w3.org/2000/svg" xmlns:xlink="http://www.w3.org/1999/xlink" width="375pt" height="374.999991pt" viewBox="0 0 375 374.999991" version="1.2">
<defs>
<clipPath id="clip1">
  <path d="M 92 18.265625 L 324.128906 18.265625 L 324.128906 345.265625 L 92 345.265625 Z M 92 18.265625 "/>
</clipPath>
<clipPath id="clip2">
  <path d="M 51.128906 18.265625 L 106 18.265625 L 106 345.265625 L 51.128906 345.265625 Z M 51.128906 18.265625 "/>
</clipPath>
<clipPath id="clip3">
  <path d="M 250.816406 18.265625 L 287.566406 18.265625 L 287.566406 73 L 250.816406 73 Z M 250.816406 18.265625 "/>
</clipPath>
</defs>
<g id="surface1">
<g clip-path="url(#clip1)" clip-rule="nonzero">
<path style=" stroke:none;fill-rule:nonzero;fill:rgb(19.999695%,36.859131%,91.758728%);fill-opacity:1;" d="M 289.953125 18.265625 L 98.945312 18.265625 C 98.5 18.265625 98.054688 18.308594 97.617188 18.398438 C 97.175781 18.484375 96.75 18.613281 96.335938 18.785156 C 95.921875 18.957031 95.53125 19.164062 95.15625 19.414062 C 94.785156 19.664062 94.441406 19.945312 94.125 20.261719 C 93.804688 20.578125 93.523438 20.921875 93.273438 21.292969 C 93.027344 21.664062 92.816406 22.058594 92.644531 22.472656 C 92.472656 22.886719 92.34375 23.3125 92.257812 23.75 C 92.167969 24.1875 92.125 24.632812 92.125 25.078125 L 92.125 338.453125 C 92.125 338.902344 92.167969 339.34375 92.257812 339.78125 C 92.34375 340.222656 92.472656 340.648438 92.644531 341.0625 C 92.816406 341.472656 93.027344 341.867188 93.273438 342.238281 C 93.523438 342.609375 93.804688 342.953125 94.125 343.269531 C 94.441406 343.585938 94.785156 343.871094 95.15625 344.117188 C 95.53125 344.367188 95.921875 344.578125 96.335938 344.746094 C 96.75 344.917969 97.175781 345.046875 97.617188 345.136719 C 98.054688 345.222656 98.5 345.265625 98.945312 345.265625 L 289.953125 345.265625 C 291.070312 345.265625 292.183594 345.210938 293.296875 345.101562 C 294.40625 344.992188 295.511719 344.828125 296.605469 344.613281 C 297.703125 344.394531 298.785156 344.125 299.851562 343.800781 C 300.921875 343.476562 301.972656 343.101562 303.003906 342.671875 C 304.035156 342.246094 305.046875 341.769531 306.03125 341.242188 C 307.015625 340.71875 307.972656 340.144531 308.902344 339.527344 C 309.832031 338.90625 310.726562 338.242188 311.589844 337.535156 C 312.453125 336.828125 313.28125 336.078125 314.070312 335.289062 C 314.859375 334.5 315.609375 333.675781 316.316406 332.8125 C 317.027344 331.949219 317.691406 331.054688 318.3125 330.128906 C 318.933594 329.199219 319.507812 328.246094 320.03125 327.261719 C 320.558594 326.277344 321.035156 325.269531 321.464844 324.238281 C 321.890625 323.207031 322.265625 322.160156 322.589844 321.089844 C 322.917969 320.023438 323.1875 318.941406 323.40625 317.847656 C 323.621094 316.753906 323.785156 315.652344 323.894531 314.542969 C 324.003906 313.433594 324.058594 312.320312 324.058594 311.203125 L 324.058594 52.328125 C 324.058594 51.214844 324.003906 50.101562 323.894531 48.988281 C 323.785156 47.878906 323.621094 46.777344 323.40625 45.683594 C 323.1875 44.589844 322.917969 43.507812 322.589844 42.441406 C 322.265625 41.375 321.890625 40.324219 321.464844 39.292969 C 321.035156 38.261719 320.558594 37.253906 320.03125 36.273438 C 319.507812 35.289062 318.933594 34.332031 318.3125 33.40625 C 317.691406 32.476562 317.027344 31.582031 316.316406 30.71875 C 315.609375 29.855469 314.859375 29.03125 314.070312 28.242188 C 313.28125 27.453125 312.453125 26.707031 311.589844 25.996094 C 310.726562 25.289062 309.832031 24.625 308.902344 24.007812 C 307.972656 23.386719 307.015625 22.8125 306.03125 22.289062 C 305.046875 21.761719 304.035156 21.285156 303.003906 20.859375 C 301.972656 20.433594 300.921875 20.058594 299.851562 19.734375 C 298.785156 19.410156 297.703125 19.136719 296.605469 18.921875 C 295.511719 18.703125 294.40625 18.539062 293.296875 18.429688 C 292.183594 18.320312 291.070312 18.265625 289.953125 18.265625 Z M 289.953125 18.265625 "/>
</g>
<g clip-path="url(#clip2)" clip-rule="nonzero">
<path style=" stroke:none;fill-rule:nonzero;fill:rgb(19.999695%,36.859131%,91.758728%);fill-opacity:1;" d="M 105.769531 18.265625 L 85.304688 18.265625 C 84.1875 18.265625 83.070312 18.320312 81.960938 18.429688 C 80.847656 18.539062 79.746094 18.703125 78.648438 18.921875 C 77.554688 19.136719 76.472656 19.410156 75.402344 19.734375 C 74.332031 20.058594 73.28125 20.433594 72.25 20.859375 C 71.21875 21.285156 70.210938 21.761719 69.226562 22.289062 C 68.238281 22.8125 67.28125 23.386719 66.355469 24.007812 C 65.425781 24.625 64.527344 25.289062 63.664062 25.996094 C 62.800781 26.707031 61.976562 27.453125 61.183594 28.242188 C 60.394531 29.03125 59.644531 29.855469 58.9375 30.71875 C 58.230469 31.582031 57.5625 32.476562 56.945312 33.40625 C 56.324219 34.332031 55.75 35.289062 55.222656 36.273438 C 54.695312 37.253906 54.21875 38.261719 53.792969 39.292969 C 53.363281 40.324219 52.988281 41.375 52.664062 42.441406 C 52.339844 43.507812 52.070312 44.589844 51.851562 45.683594 C 51.632812 46.777344 51.46875 47.878906 51.359375 48.988281 C 51.25 50.101562 51.195312 51.214844 51.195312 52.328125 L 51.195312 311.203125 C 51.195312 312.320312 51.25 313.433594 51.359375 314.542969 C 51.46875 315.652344 51.632812 316.753906 51.851562 317.847656 C 52.070312 318.941406 52.339844 320.023438 52.664062 321.089844 C 52.988281 322.160156 53.363281 323.207031 53.792969 324.238281 C 54.21875 325.269531 54.695312 326.277344 55.222656 327.261719 C 55.75 328.246094 56.324219 329.199219 56.945312 330.128906 C 57.5625 331.054688 58.230469 331.949219 58.9375 332.8125 C 59.644531 333.675781 60.394531 334.5 61.183594 335.289062 C 61.976562 336.078125 62.800781 336.828125 63.664062 337.535156 C 64.527344 338.242188 65.425781 338.90625 66.355469 339.527344 C 67.28125 340.144531 68.238281 340.71875 69.226562 341.242188 C 70.210938 341.769531 71.21875 342.246094 72.25 342.671875 C 73.28125 343.101562 74.332031 343.476562 75.402344 343.800781 C 76.472656 344.125 77.554688 344.394531 78.648438 344.613281 C 79.746094 344.828125 80.847656 344.992188 81.960938 345.101562 C 83.070312 345.210938 84.1875 345.265625 85.304688 345.265625 L 105.769531 345.265625 Z M 105.769531 18.265625 "/>
</g>
<path style=" stroke:none;fill-rule:nonzero;fill:rgb(17.248535%,87.838745%,50.19989%);fill-opacity:1;" d="M 295.558594 252.820312 L 234.164062 164.257812 C 233.527344 163.339844 232.714844 162.621094 231.722656 162.105469 C 230.730469 161.585938 229.675781 161.328125 228.558594 161.328125 C 227.425781 161.339844 226.363281 161.613281 225.367188 162.148438 C 224.375 162.6875 223.5625 163.425781 222.9375 164.367188 L 188.527344 215.910156 L 173.328125 185.539062 C 173.054688 184.988281 172.710938 184.484375 172.300781 184.027344 C 171.890625 183.566406 171.421875 183.171875 170.90625 182.839844 C 170.386719 182.507812 169.832031 182.25 169.242188 182.070312 C 168.65625 181.886719 168.050781 181.785156 167.4375 181.765625 C 166.820312 181.703125 166.207031 181.730469 165.597656 181.847656 C 164.992188 181.96875 164.414062 182.175781 163.871094 182.472656 C 163.324219 182.765625 162.835938 183.132812 162.402344 183.574219 C 161.964844 184.015625 161.609375 184.511719 161.324219 185.0625 L 120.394531 253.1875 C 120.082031 253.703125 119.84375 254.253906 119.679688 254.832031 C 119.511719 255.414062 119.425781 256.003906 119.417969 256.609375 C 119.40625 257.210938 119.476562 257.804688 119.628906 258.390625 C 119.777344 258.972656 120 259.527344 120.296875 260.054688 C 120.59375 260.578125 120.953125 261.054688 121.378906 261.484375 C 121.800781 261.914062 122.273438 262.28125 122.796875 262.585938 C 123.316406 262.890625 123.871094 263.121094 124.453125 263.277344 C 125.035156 263.4375 125.628906 263.515625 126.234375 263.515625 L 289.953125 263.515625 C 290.574219 263.515625 291.1875 263.433594 291.785156 263.265625 C 292.386719 263.097656 292.953125 262.855469 293.484375 262.53125 C 294.019531 262.210938 294.5 261.824219 294.925781 261.371094 C 295.351562 260.917969 295.710938 260.414062 296 259.863281 C 296.285156 259.3125 296.496094 258.734375 296.625 258.125 C 296.757812 257.515625 296.800781 256.902344 296.761719 256.28125 C 296.722656 255.660156 296.601562 255.054688 296.398438 254.46875 C 296.195312 253.878906 295.914062 253.332031 295.558594 252.820312 Z M 295.558594 252.820312 "/>
<path style=" stroke:none;fill-rule:nonzero;fill:rgb(17.248535%,87.838745%,50.19989%);fill-opacity:1;" d="M 187.628906 127.265625 C 187.628906 128.160156 187.585938 129.050781 187.496094 129.9375 C 187.410156 130.824219 187.277344 131.707031 187.105469 132.582031 C 186.929688 133.457031 186.710938 134.324219 186.453125 135.175781 C 186.195312 136.03125 185.894531 136.871094 185.550781 137.695312 C 185.207031 138.519531 184.828125 139.324219 184.40625 140.113281 C 183.984375 140.898438 183.527344 141.664062 183.03125 142.40625 C 182.53125 143.148438 182 143.863281 181.433594 144.554688 C 180.867188 145.242188 180.269531 145.902344 179.636719 146.535156 C 179.003906 147.164062 178.34375 147.765625 177.652344 148.332031 C 176.960938 148.898438 176.242188 149.429688 175.5 149.921875 C 174.757812 150.417969 173.992188 150.878906 173.203125 151.296875 C 172.417969 151.71875 171.609375 152.101562 170.785156 152.441406 C 169.957031 152.785156 169.117188 153.082031 168.261719 153.34375 C 167.40625 153.601562 166.542969 153.820312 165.664062 153.992188 C 164.789062 154.167969 163.90625 154.296875 163.015625 154.386719 C 162.125 154.472656 161.234375 154.515625 160.339844 154.515625 C 159.449219 154.515625 158.554688 154.472656 157.667969 154.386719 C 156.777344 154.296875 155.894531 154.167969 155.019531 153.992188 C 154.140625 153.820312 153.277344 153.601562 152.421875 153.34375 C 151.566406 153.082031 150.726562 152.785156 149.898438 152.441406 C 149.074219 152.101562 148.265625 151.71875 147.480469 151.296875 C 146.691406 150.878906 145.925781 150.417969 145.183594 149.921875 C 144.4375 149.429688 143.722656 148.898438 143.03125 148.332031 C 142.339844 147.765625 141.679688 147.164062 141.046875 146.535156 C 140.414062 145.902344 139.816406 145.242188 139.25 144.554688 C 138.683594 143.863281 138.148438 143.148438 137.652344 142.40625 C 137.15625 141.664062 136.699219 140.898438 136.277344 140.113281 C 135.855469 139.324219 135.472656 138.519531 135.132812 137.695312 C 134.789062 136.871094 134.488281 136.03125 134.230469 135.175781 C 133.96875 134.324219 133.753906 133.457031 133.578125 132.582031 C 133.40625 131.707031 133.273438 130.824219 133.1875 129.9375 C 133.097656 129.050781 133.054688 128.160156 133.054688 127.265625 C 133.054688 126.375 133.097656 125.484375 133.1875 124.59375 C 133.273438 123.707031 133.40625 122.824219 133.578125 121.949219 C 133.753906 121.074219 133.96875 120.210938 134.230469 119.355469 C 134.488281 118.5 134.789062 117.664062 135.132812 116.839844 C 135.472656 116.011719 135.855469 115.207031 136.277344 114.421875 C 136.699219 113.632812 137.15625 112.867188 137.652344 112.125 C 138.148438 111.382812 138.683594 110.667969 139.25 109.980469 C 139.816406 109.289062 140.414062 108.628906 141.046875 107.996094 C 141.679688 107.367188 142.339844 106.769531 143.03125 106.203125 C 143.722656 105.636719 144.4375 105.105469 145.183594 104.609375 C 145.925781 104.113281 146.691406 103.65625 147.480469 103.234375 C 148.265625 102.8125 149.074219 102.433594 149.898438 102.089844 C 150.726562 101.75 151.566406 101.449219 152.421875 101.191406 C 153.277344 100.929688 154.140625 100.714844 155.019531 100.539062 C 155.894531 100.367188 156.777344 100.234375 157.667969 100.148438 C 158.554688 100.058594 159.449219 100.015625 160.339844 100.015625 C 161.234375 100.015625 162.125 100.058594 163.015625 100.148438 C 163.90625 100.234375 164.789062 100.367188 165.664062 100.539062 C 166.542969 100.714844 167.40625 100.929688 168.261719 101.191406 C 169.117188 101.449219 169.957031 101.75 170.785156 102.089844 C 171.609375 102.433594 172.417969 102.8125 173.203125 103.234375 C 173.992188 103.65625 174.757812 104.113281 175.5 104.609375 C 176.242188 105.105469 176.960938 105.636719 177.652344 106.203125 C 178.34375 106.769531 179.003906 107.367188 179.636719 107.996094 C 180.269531 108.628906 180.867188 109.289062 181.433594 109.980469 C 182 110.667969 182.53125 111.382812 183.03125 112.125 C 183.527344 112.867188 183.984375 113.632812 184.40625 114.421875 C 184.828125 115.207031 185.207031 116.011719 185.550781 116.839844 C 185.894531 117.664062 186.195312 118.5 186.453125 119.355469 C 186.710938 120.210938 186.929688 121.074219 187.105469 121.949219 C 187.277344 122.824219 187.410156 123.707031 187.496094 124.59375 C 187.585938 125.484375 187.628906 126.375 187.628906 127.265625 Z M 187.628906 127.265625 "/>
<path style=" stroke:none;fill-rule:nonzero;fill:rgb(17.248535%,87.838745%,50.19989%);fill-opacity:1;" d="M 190.550781 219.148438 L 138.246094 219.148438 C 136.089844 219.148438 134.335938 217.394531 134.335938 215.238281 L 134.335938 162.933594 C 134.335938 160.777344 136.089844 159.023438 138.246094 159.023438 L 190.550781 159.023438 C 192.707031 159.023438 194.460938 160.777344 194.460938 162.933594 L 194.460938 215.238281 C 194.460938 217.394531 192.707031 219.148438 190.550781 219.148438 Z M 190.550781 219.148438 "/>
<g clip-path="url(#clip3)" clip-rule="nonzero">
<path style=" stroke:none;fill-rule:nonzero;fill:rgb(100%,100%,100%);fill-opacity:1;" d="M 269.191406 18.265625 L 252.40625 18.265625 C 251.527344 18.265625 250.816406 18.976562 250.816406 19.851562 L 250.816406 70.964844 C 250.816406 72.269531 252.300781 73.015625 253.351562 72.242188 L 268.246094 61.222656 C 268.808594 60.804688 269.578125 60.804688 270.136719 61.222656 L 285.035156 72.242188 C 286.082031 73.015625 287.570312 72.269531 287.570312 70.964844 L 287.570312 19.851562 C 287.570312 18.976562 286.859375 18.265625 285.980469 18.265625 L 269.191406 18.265625 "/>
</g>
</g>
</svg>
